<?xml version="1.0" encoding="UTF-8"?>
<svg id="Layer_2" data-name="Layer 2" xmlns="http://www.w3.org/2000/svg" xmlns:xlink="http://www.w3.org/1999/xlink" viewBox="0 0 571.89 230.06">
  <defs>
    <style>
      .cls-1 {
        fill: none;
        stroke-width: 0px;
      }

      .cls-2 {
        clip-path: url(#clippath);
      }
    </style>
    <clipPath id="clippath">
      <path class="cls-1" d="M0,1.27h49.71v16.41h-29v11.23h27.2v15.23h-27.2v11.18h29v16.41H0V1.27ZM72.1,36.43v-.39L51.29,1.27h24.12l11.08,22.46h.39L98.02,1.27h22.95l-21.83,34.86v.39l21.73,35.21h-23.05l-12.16-21.24h-.39l-12.06,21.24h-21.87l20.75-35.3ZM122.65,1.27h31.49c16.5,0,26.9,10.06,26.9,25.68v.1c0,15.62-10.4,25.44-26.9,25.44h-10.79v19.24h-20.7V1.27ZM143.35,16.85v20.36h5.86c6.84,0,10.94-3.42,10.94-10.16v-.1c0-6.74-4.1-10.11-10.94-10.11h-5.86ZM183.48,1.27h31.74c18.12,0,27.98,8.5,27.98,24.12v.1c0,8.79-4.49,16.7-11.33,20.02l13.38,26.22h-23.14l-11.13-23.14h-6.79v23.14h-20.7V1.27ZM212.83,33.98c5.57,0,9.28-3.47,9.28-8.64v-.1c0-5.13-3.81-8.69-9.28-8.69h-8.64v17.43h8.64ZM248.05,1.27h49.71v16.41h-29v11.23h27.2v15.23h-27.2v11.18h29v16.41h-49.71V1.27ZM300.92,51.27l-.05-.93h19.04l.1.44c.83,3.81,5.62,6.35,11.47,6.35,6.2,0,10.01-2.54,10.01-6.05v-.05c0-3.32-2.83-4.69-10.64-6.1l-7.08-1.27c-14.01-2.49-21.68-9.57-21.68-20.51v-.05c0-14.16,12.21-23.1,28.91-23.1,18.85,0,28.86,8.4,29.44,21.58l.05,1.07h-19.04l-.05-.49c-.39-3.86-4.49-6.3-10.16-6.3s-8.64,2.49-8.64,5.71v.05c0,3.17,3.03,4.69,10.06,5.96l7.08,1.27c15.09,2.73,22.27,8.89,22.27,20.31v.05c0,14.55-11.33,23.78-30.76,23.78-18.26,0-29.59-7.81-30.32-21.73ZM363.49,51.27l-.05-.93h19.04l.1.44c.83,3.81,5.62,6.35,11.47,6.35,6.2,0,10.01-2.54,10.01-6.05v-.05c0-3.32-2.83-4.69-10.64-6.1l-7.08-1.27c-14.01-2.49-21.68-9.57-21.68-20.51v-.05c0-14.16,12.21-23.1,28.91-23.1,18.85,0,28.86,8.4,29.44,21.58l.05,1.07h-19.04l-.05-.49c-.39-3.86-4.49-6.3-10.16-6.3s-8.64,2.49-8.64,5.71v.05c0,3.17,3.03,4.69,10.06,5.96l7.08,1.27c15.09,2.73,22.27,8.89,22.27,20.31v.05c0,14.55-11.33,23.78-30.76,23.78-18.26,0-29.59-7.81-30.32-21.73ZM429,1.27h20.7v70.46h-20.7V1.27ZM451.12,1.27h23.44l11.18,50.83h.39l11.18-50.83h23.44l-21.19,70.46h-27.25L451.12,1.27ZM522.18,1.27h49.71v16.41h-29v11.23h27.2v15.23h-27.2v11.18h29v16.41h-49.71V1.27ZM77.6,86.6h51.95l46,140.92h-43.55l-7.32-28.03h-42.19l-7.32,28.03H31.6l46-140.92ZM90.1,170.29h26.95l-13.09-50.1h-.78l-13.09,50.1ZM178.46,86.6h63.48c36.23,0,55.96,16.99,55.96,48.24v.2c0,17.58-8.98,33.4-22.66,40.04l26.76,52.44h-46.29l-22.27-46.29h-13.57v46.29h-41.41V86.6ZM237.16,152.03c11.13,0,18.55-6.93,18.55-17.29v-.2c0-10.25-7.62-17.38-18.55-17.38h-17.29v34.86h17.29ZM336.63,119.42h-37.11v-32.81h115.62v32.81h-37.11v108.11h-41.41v-108.11ZM415.28,186.6l-.1-1.86h38.09l.2.88c1.66,7.62,11.23,12.7,22.95,12.7,12.4,0,20.02-5.08,20.02-12.11v-.1c0-6.64-5.66-9.38-21.29-12.21l-14.16-2.54c-28.03-4.98-43.36-19.14-43.36-41.02v-.1c0-28.32,24.41-46.19,57.81-46.19,37.7,0,57.71,16.8,58.89,43.16l.1,2.15h-38.09l-.1-.98c-.78-7.71-8.98-12.6-20.31-12.6s-17.29,4.98-17.29,11.43v.1c0,6.35,6.05,9.38,20.12,11.91l14.16,2.54c30.18,5.47,44.53,17.77,44.53,40.62v.1c0,29.1-22.66,47.56-61.52,47.56-36.52,0-59.18-15.62-60.64-43.46Z"/>
    </clipPath>
  </defs>
  <g id="Layer_1-2" data-name="Layer 1">
    <g class="cls-2">
      <image width="2500" height="1666" transform="translate(-74.62 -101.22) scale(.25)" xlink:href="../Amy-Herzog-Santa-Barbara-Tutoring-Math-and-Reading.jpg"/>
    </g>
  </g>
</svg>